<mxfile host="app.diagrams.net" agent="Mozilla/5.0 (Windows NT 10.0; Win64; x64) AppleWebKit/537.36 (KHTML, like Gecko) Chrome/132.0.0.0 Safari/537.36 OPR/117.0.0.0" version="26.1.0">
  <diagram id="C5RBs43oDa-KdzZeNtuy" name="Page-1">
    <mxGraphModel dx="1380" dy="738" grid="1" gridSize="10" guides="1" tooltips="1" connect="1" arrows="1" fold="1" page="1" pageScale="1" pageWidth="827" pageHeight="1169" math="0" shadow="0">
      <root>
        <mxCell id="WIyWlLk6GJQsqaUBKTNV-0" />
        <mxCell id="WIyWlLk6GJQsqaUBKTNV-1" parent="WIyWlLk6GJQsqaUBKTNV-0" />
        <mxCell id="0blR8FibwqJHF27sOyIU-0" value="Veiculo&lt;div&gt;&lt;br&gt;&lt;/div&gt;" style="rhombus;whiteSpace=wrap;html=1;" vertex="1" parent="WIyWlLk6GJQsqaUBKTNV-1">
          <mxGeometry x="380" y="320" width="80" height="80" as="geometry" />
        </mxCell>
        <mxCell id="0blR8FibwqJHF27sOyIU-1" value="" style="endArrow=none;html=1;rounded=0;entryX=0;entryY=0.5;entryDx=0;entryDy=0;" edge="1" parent="WIyWlLk6GJQsqaUBKTNV-1" target="0blR8FibwqJHF27sOyIU-0">
          <mxGeometry width="50" height="50" relative="1" as="geometry">
            <mxPoint x="300" y="360" as="sourcePoint" />
            <mxPoint x="510" y="380" as="targetPoint" />
          </mxGeometry>
        </mxCell>
        <mxCell id="0blR8FibwqJHF27sOyIU-2" value="" style="endArrow=none;html=1;rounded=0;" edge="1" parent="WIyWlLk6GJQsqaUBKTNV-1">
          <mxGeometry width="50" height="50" relative="1" as="geometry">
            <mxPoint x="460" y="360" as="sourcePoint" />
            <mxPoint x="540" y="360" as="targetPoint" />
          </mxGeometry>
        </mxCell>
        <mxCell id="0blR8FibwqJHF27sOyIU-3" value="Pessoa" style="rounded=0;whiteSpace=wrap;html=1;" vertex="1" parent="WIyWlLk6GJQsqaUBKTNV-1">
          <mxGeometry x="180" y="330" width="120" height="60" as="geometry" />
        </mxCell>
        <mxCell id="0blR8FibwqJHF27sOyIU-4" value="Empresa" style="rounded=0;whiteSpace=wrap;html=1;" vertex="1" parent="WIyWlLk6GJQsqaUBKTNV-1">
          <mxGeometry x="540" y="330" width="120" height="60" as="geometry" />
        </mxCell>
        <mxCell id="0blR8FibwqJHF27sOyIU-5" value="" style="endArrow=none;html=1;rounded=0;entryX=0;entryY=0.5;entryDx=0;entryDy=0;" edge="1" parent="WIyWlLk6GJQsqaUBKTNV-1" target="0blR8FibwqJHF27sOyIU-3">
          <mxGeometry width="50" height="50" relative="1" as="geometry">
            <mxPoint x="140" y="360" as="sourcePoint" />
            <mxPoint x="510" y="380" as="targetPoint" />
          </mxGeometry>
        </mxCell>
        <mxCell id="0blR8FibwqJHF27sOyIU-6" value="" style="ellipse;whiteSpace=wrap;html=1;aspect=fixed;fillColor=#000000;" vertex="1" parent="WIyWlLk6GJQsqaUBKTNV-1">
          <mxGeometry x="110" y="345" width="30" height="30" as="geometry" />
        </mxCell>
        <mxCell id="0blR8FibwqJHF27sOyIU-7" value="" style="ellipse;whiteSpace=wrap;html=1;aspect=fixed;strokeColor=#000000;fillColor=#000000;" vertex="1" parent="WIyWlLk6GJQsqaUBKTNV-1">
          <mxGeometry x="700" y="345" width="30" height="30" as="geometry" />
        </mxCell>
        <mxCell id="0blR8FibwqJHF27sOyIU-8" value="" style="endArrow=none;html=1;rounded=0;entryX=0;entryY=0.5;entryDx=0;entryDy=0;" edge="1" parent="WIyWlLk6GJQsqaUBKTNV-1">
          <mxGeometry width="50" height="50" relative="1" as="geometry">
            <mxPoint x="660" y="359.41" as="sourcePoint" />
            <mxPoint x="700" y="359.41" as="targetPoint" />
          </mxGeometry>
        </mxCell>
        <mxCell id="0blR8FibwqJHF27sOyIU-9" value="" style="endArrow=none;html=1;rounded=0;" edge="1" parent="WIyWlLk6GJQsqaUBKTNV-1">
          <mxGeometry width="50" height="50" relative="1" as="geometry">
            <mxPoint x="419.41" y="320" as="sourcePoint" />
            <mxPoint x="419" y="290" as="targetPoint" />
          </mxGeometry>
        </mxCell>
        <mxCell id="0blR8FibwqJHF27sOyIU-11" value="" style="ellipse;whiteSpace=wrap;html=1;aspect=fixed;" vertex="1" parent="WIyWlLk6GJQsqaUBKTNV-1">
          <mxGeometry x="405" y="270" width="30" height="30" as="geometry" />
        </mxCell>
        <mxCell id="0blR8FibwqJHF27sOyIU-12" value="Remuneração" style="text;html=1;align=center;verticalAlign=middle;resizable=0;points=[];autosize=1;strokeColor=none;fillColor=none;" vertex="1" parent="WIyWlLk6GJQsqaUBKTNV-1">
          <mxGeometry x="370" y="240" width="100" height="30" as="geometry" />
        </mxCell>
        <mxCell id="0blR8FibwqJHF27sOyIU-13" value="N" style="text;html=1;align=center;verticalAlign=middle;resizable=0;points=[];autosize=1;strokeColor=none;fillColor=none;" vertex="1" parent="WIyWlLk6GJQsqaUBKTNV-1">
          <mxGeometry x="330" y="320" width="30" height="30" as="geometry" />
        </mxCell>
        <mxCell id="0blR8FibwqJHF27sOyIU-14" value="N" style="text;html=1;align=center;verticalAlign=middle;resizable=0;points=[];autosize=1;strokeColor=none;fillColor=none;" vertex="1" parent="WIyWlLk6GJQsqaUBKTNV-1">
          <mxGeometry x="485" y="318" width="30" height="30" as="geometry" />
        </mxCell>
        <mxCell id="0blR8FibwqJHF27sOyIU-15" value="Código" style="text;html=1;align=center;verticalAlign=middle;resizable=0;points=[];autosize=1;strokeColor=none;fillColor=none;" vertex="1" parent="WIyWlLk6GJQsqaUBKTNV-1">
          <mxGeometry x="730" y="345" width="60" height="30" as="geometry" />
        </mxCell>
        <mxCell id="0blR8FibwqJHF27sOyIU-16" value="Código&lt;div&gt;&lt;br&gt;&lt;/div&gt;" style="text;html=1;align=center;verticalAlign=middle;resizable=0;points=[];autosize=1;strokeColor=none;fillColor=none;" vertex="1" parent="WIyWlLk6GJQsqaUBKTNV-1">
          <mxGeometry x="50" y="348" width="60" height="40" as="geometry" />
        </mxCell>
        <mxCell id="0blR8FibwqJHF27sOyIU-17" value="" style="endArrow=none;html=1;rounded=0;entryX=0;entryY=1;entryDx=0;entryDy=0;" edge="1" parent="WIyWlLk6GJQsqaUBKTNV-1">
          <mxGeometry width="50" height="50" relative="1" as="geometry">
            <mxPoint x="194.66" y="480" as="sourcePoint" />
            <mxPoint x="194.66" y="390" as="targetPoint" />
          </mxGeometry>
        </mxCell>
        <mxCell id="0blR8FibwqJHF27sOyIU-19" value="" style="endArrow=none;html=1;rounded=0;entryX=0;entryY=1;entryDx=0;entryDy=0;" edge="1" parent="WIyWlLk6GJQsqaUBKTNV-1">
          <mxGeometry width="50" height="50" relative="1" as="geometry">
            <mxPoint x="240" y="462" as="sourcePoint" />
            <mxPoint x="239.5" y="390" as="targetPoint" />
          </mxGeometry>
        </mxCell>
        <mxCell id="0blR8FibwqJHF27sOyIU-20" value="" style="endArrow=none;html=1;rounded=0;entryX=0;entryY=1;entryDx=0;entryDy=0;" edge="1" parent="WIyWlLk6GJQsqaUBKTNV-1">
          <mxGeometry width="50" height="50" relative="1" as="geometry">
            <mxPoint x="284.66" y="440" as="sourcePoint" />
            <mxPoint x="284.66" y="390" as="targetPoint" />
          </mxGeometry>
        </mxCell>
        <mxCell id="0blR8FibwqJHF27sOyIU-21" value="" style="ellipse;whiteSpace=wrap;html=1;aspect=fixed;" vertex="1" parent="WIyWlLk6GJQsqaUBKTNV-1">
          <mxGeometry x="270" y="440" width="30" height="30" as="geometry" />
        </mxCell>
        <mxCell id="0blR8FibwqJHF27sOyIU-22" value="" style="ellipse;whiteSpace=wrap;html=1;aspect=fixed;" vertex="1" parent="WIyWlLk6GJQsqaUBKTNV-1">
          <mxGeometry x="225" y="460" width="30" height="30" as="geometry" />
        </mxCell>
        <mxCell id="0blR8FibwqJHF27sOyIU-23" value="" style="ellipse;whiteSpace=wrap;html=1;aspect=fixed;" vertex="1" parent="WIyWlLk6GJQsqaUBKTNV-1">
          <mxGeometry x="180" y="480" width="30" height="30" as="geometry" />
        </mxCell>
        <mxCell id="0blR8FibwqJHF27sOyIU-25" value="" style="endArrow=none;html=1;rounded=0;entryX=0;entryY=1;entryDx=0;entryDy=0;" edge="1" parent="WIyWlLk6GJQsqaUBKTNV-1">
          <mxGeometry width="50" height="50" relative="1" as="geometry">
            <mxPoint x="644.66" y="480" as="sourcePoint" />
            <mxPoint x="644.66" y="390" as="targetPoint" />
          </mxGeometry>
        </mxCell>
        <mxCell id="0blR8FibwqJHF27sOyIU-26" value="" style="endArrow=none;html=1;rounded=0;entryX=0;entryY=1;entryDx=0;entryDy=0;" edge="1" parent="WIyWlLk6GJQsqaUBKTNV-1">
          <mxGeometry width="50" height="50" relative="1" as="geometry">
            <mxPoint x="600.1600000000001" y="462" as="sourcePoint" />
            <mxPoint x="599.6600000000001" y="390" as="targetPoint" />
          </mxGeometry>
        </mxCell>
        <mxCell id="0blR8FibwqJHF27sOyIU-27" value="" style="endArrow=none;html=1;rounded=0;entryX=0;entryY=1;entryDx=0;entryDy=0;" edge="1" parent="WIyWlLk6GJQsqaUBKTNV-1">
          <mxGeometry width="50" height="50" relative="1" as="geometry">
            <mxPoint x="554.66" y="440" as="sourcePoint" />
            <mxPoint x="554.66" y="390" as="targetPoint" />
          </mxGeometry>
        </mxCell>
        <mxCell id="0blR8FibwqJHF27sOyIU-28" value="" style="ellipse;whiteSpace=wrap;html=1;aspect=fixed;" vertex="1" parent="WIyWlLk6GJQsqaUBKTNV-1">
          <mxGeometry x="540" y="440" width="30" height="30" as="geometry" />
        </mxCell>
        <mxCell id="0blR8FibwqJHF27sOyIU-29" value="" style="ellipse;whiteSpace=wrap;html=1;aspect=fixed;" vertex="1" parent="WIyWlLk6GJQsqaUBKTNV-1">
          <mxGeometry x="630" y="480" width="30" height="30" as="geometry" />
        </mxCell>
        <mxCell id="0blR8FibwqJHF27sOyIU-30" value="" style="ellipse;whiteSpace=wrap;html=1;aspect=fixed;" vertex="1" parent="WIyWlLk6GJQsqaUBKTNV-1">
          <mxGeometry x="585" y="460" width="30" height="30" as="geometry" />
        </mxCell>
        <mxCell id="0blR8FibwqJHF27sOyIU-31" value="CPF&lt;div&gt;&lt;br&gt;&lt;/div&gt;" style="text;html=1;align=center;verticalAlign=middle;resizable=0;points=[];autosize=1;strokeColor=none;fillColor=none;" vertex="1" parent="WIyWlLk6GJQsqaUBKTNV-1">
          <mxGeometry x="170" y="510" width="50" height="40" as="geometry" />
        </mxCell>
        <mxCell id="0blR8FibwqJHF27sOyIU-32" value="Email" style="text;html=1;align=center;verticalAlign=middle;resizable=0;points=[];autosize=1;strokeColor=none;fillColor=none;" vertex="1" parent="WIyWlLk6GJQsqaUBKTNV-1">
          <mxGeometry x="215" y="490" width="50" height="30" as="geometry" />
        </mxCell>
        <mxCell id="0blR8FibwqJHF27sOyIU-33" value="Nome" style="text;html=1;align=center;verticalAlign=middle;resizable=0;points=[];autosize=1;strokeColor=none;fillColor=none;" vertex="1" parent="WIyWlLk6GJQsqaUBKTNV-1">
          <mxGeometry x="255" y="470" width="60" height="30" as="geometry" />
        </mxCell>
        <mxCell id="0blR8FibwqJHF27sOyIU-34" value="Nome" style="text;html=1;align=center;verticalAlign=middle;resizable=0;points=[];autosize=1;strokeColor=none;fillColor=none;" vertex="1" parent="WIyWlLk6GJQsqaUBKTNV-1">
          <mxGeometry x="525" y="470" width="60" height="30" as="geometry" />
        </mxCell>
        <mxCell id="0blR8FibwqJHF27sOyIU-35" value="Local&lt;div&gt;&lt;br&gt;&lt;/div&gt;" style="text;html=1;align=center;verticalAlign=middle;resizable=0;points=[];autosize=1;strokeColor=none;fillColor=none;" vertex="1" parent="WIyWlLk6GJQsqaUBKTNV-1">
          <mxGeometry x="575" y="493" width="50" height="40" as="geometry" />
        </mxCell>
        <mxCell id="0blR8FibwqJHF27sOyIU-36" value="CNPJ&lt;div&gt;&lt;br&gt;&lt;/div&gt;" style="text;html=1;align=center;verticalAlign=middle;resizable=0;points=[];autosize=1;strokeColor=none;fillColor=none;" vertex="1" parent="WIyWlLk6GJQsqaUBKTNV-1">
          <mxGeometry x="620" y="510" width="50" height="40" as="geometry" />
        </mxCell>
        <mxCell id="0blR8FibwqJHF27sOyIU-37" value="" style="endArrow=none;html=1;rounded=0;" edge="1" parent="WIyWlLk6GJQsqaUBKTNV-1">
          <mxGeometry width="50" height="50" relative="1" as="geometry">
            <mxPoint x="420.07000000000005" y="430" as="sourcePoint" />
            <mxPoint x="419.66" y="400" as="targetPoint" />
          </mxGeometry>
        </mxCell>
        <mxCell id="0blR8FibwqJHF27sOyIU-38" value="" style="ellipse;whiteSpace=wrap;html=1;aspect=fixed;" vertex="1" parent="WIyWlLk6GJQsqaUBKTNV-1">
          <mxGeometry x="405" y="430" width="30" height="30" as="geometry" />
        </mxCell>
        <mxCell id="0blR8FibwqJHF27sOyIU-39" value="Período" style="text;html=1;align=center;verticalAlign=middle;resizable=0;points=[];autosize=1;strokeColor=none;fillColor=none;" vertex="1" parent="WIyWlLk6GJQsqaUBKTNV-1">
          <mxGeometry x="385" y="463" width="70" height="30" as="geometry" />
        </mxCell>
      </root>
    </mxGraphModel>
  </diagram>
</mxfile>
